<?xml version="1.0" standalone="no"?><!DOCTYPE svg PUBLIC "-//W3C//DTD SVG 1.1//EN" "http://www.w3.org/Graphics/SVG/1.1/DTD/svg11.dtd"><svg t="1613625609659" class="icon" viewBox="0 0 1170 1024" version="1.1" xmlns="http://www.w3.org/2000/svg" p-id="2161" width="36.5625" height="32" xmlns:xlink="http://www.w3.org/1999/xlink"><defs><style type="text/css"></style></defs><path d="M1056 193.718857h-291.986286v70.838857h291.986286V193.718857z m-143.981714 243.419429c-68.571429 0-114.285714 42.861714-118.857143 111.433143h233.142857c-6.290286-69.156571-42.276571-111.433143-114.285714-111.433143z m9.142857 334.299428c43.446857 0 99.437714-23.442286 113.152-67.986285h126.281143c-38.838857 119.442286-119.442286 175.433143-244.004572 175.433142-164.571429 0-266.861714-111.433143-266.861714-273.700571 0-156.562286 107.995429-276.004571 266.861714-276.004571 163.437714 0 253.696 128.585143 253.696 282.843428 0 9.142857-0.585143 18.285714-1.133714 26.843429H793.161143c0 83.419429 43.995429 132.571429 128 132.571428z m-762.88-28.598857h169.142857c64.585143 0 117.138286-22.857143 117.138286-95.414857 0-73.728-43.995429-102.838857-113.700572-102.838857H158.281143v198.290286z m0-306.834286h160.585143c56.576 0 96.585143-24.576 96.585143-85.723428 0-66.304-51.419429-82.285714-108.580572-82.285714H158.317714v168.009142zM0 145.152h339.419429c123.428571 0 230.290286 34.852571 230.290285 178.285714 0 72.557714-33.718857 119.442286-98.304 150.272 88.576 25.161143 131.437714 92.013714 131.437715 182.272 0 146.285714-122.843429 209.152-253.696 209.152H0V145.115429z" fill="" p-id="2162"></path></svg>